<?xml version="1.0" encoding="UTF-8"?>
<svg id="_레이어_2" data-name="레이어 2" xmlns="http://www.w3.org/2000/svg" viewBox="0 0 72.49 19.83">
  <defs>
    <style>
      .cls-1 {
        fill: #fff;
      }
    </style>
  </defs>
  <g id="_레이어_1-2" data-name="레이어 1">
    <path class="cls-1" d="M11.33,12.05c.21,0,.36.22.28.41-1.01,2.39-3.15,3.75-5.61,3.75-3.36,0-6-2.71-6-6.04C0,6.64,2.56,3.9,5.98,3.9c2.52,0,4.84,1.5,5.67,3.81.07.19-.08.39-.29.39h-1.84c-.11,0-.21-.06-.26-.16-.66-1.28-1.69-2.04-3.22-2.04-2.3,0-3.85,1.75-3.85,4.14s1.58,4.16,3.8,4.16c1.44,0,2.61-.74,3.24-1.99.05-.1.15-.16.26-.16h1.83Z"/>
    <path class="cls-1" d="M12.49,15.62V.58c0-.16.13-.3.3-.3h1.6c.16,0,.3.13.3.3v15.04c0,.16-.13.3-.3.3h-1.6c-.16,0-.3-.13-.3-.3Z"/>
    <path class="cls-1" d="M16.46,2.56V.58c0-.16.13-.3.3-.3h1.6c.16,0,.3.13.3.3v1.98c0,.16-.13.3-.3.3h-1.6c-.16,0-.3-.13-.3-.3ZM16.46,15.62V4.51c0-.16.13-.3.3-.3h1.6c.16,0,.3.13.3.3v11.11c0,.16-.13.3-.3.3h-1.6c-.16,0-.3-.13-.3-.3Z"/>
    <path class="cls-1" d="M20.85,19.53V4.51c0-.16.13-.3.3-.3h1.41c.16,0,.3.13.3.3v1.5h.04c.99-1.42,2.49-2.11,4.16-2.11,3.49,0,6.07,2.71,6.07,6.32,0,3.3-2.56,6-5.92,6-1.78,0-3.36-.72-4.12-1.99h-.04v5.3c0,.16-.13.3-.3.3h-1.6c-.16,0-.3-.13-.3-.3ZM30.93,10.09c0-2.13-1.69-4.18-4.04-4.18-2.2,0-3.89,1.97-3.89,4.14s1.69,4.16,3.97,4.16,3.95-1.88,3.95-4.12Z"/>
    <path class="cls-1" d="M51.64,12.05c.21,0,.36.22.28.41-1.01,2.39-3.15,3.75-5.61,3.75-3.36,0-6-2.71-6-6.04,0-3.53,2.56-6.28,5.98-6.28,2.52,0,4.84,1.5,5.67,3.81.07.19-.08.39-.29.39h-1.84c-.11,0-.21-.06-.26-.16-.66-1.28-1.69-2.04-3.22-2.04-2.3,0-3.85,1.75-3.85,4.14s1.58,4.16,3.8,4.16c1.44,0,2.61-.74,3.24-1.99.05-.1.15-.16.26-.16h1.83Z"/>
    <path class="cls-1" d="M52.8,15.62V.58c0-.16.13-.3.3-.3h1.6c.16,0,.3.13.3.3v15.04c0,.16-.13.3-.3.3h-1.6c-.16,0-.3-.13-.3-.3Z"/>
    <path class="cls-1" d="M65.61,14.97c0,.1-.04.19-.12.25-.86.64-2.04,1.01-3.51,1.01-3.34,0-5.79-2.62-5.79-6.17s2.64-6.15,5.88-6.15c2.26,0,4.16,1.14,5.3,3.01.08.13.05.29-.07.39l-6.98,5.93c-.15.13-.14.38.03.48.58.34,1.17.5,1.88.5,1.06,0,2.09-.39,2.9-1.08.19-.16.49-.03.49.22v1.61ZM64.5,7.16c.14-.12.15-.34,0-.45-.65-.51-1.53-.81-2.36-.81-2.09,0-3.76,1.67-3.76,4.06,0,.63.04,1.1.23,1.67.07.2.32.28.48.14l5.41-4.61Z"/>
    <path class="cls-1" d="M72.21.28h-.23c-.58,0-1.09.09-1.54.24-1.42.48-2.2,1.66-2.2,3.16v11.94c0,.16.13.3.3.3h1.6c.16,0,.3-.13.3-.3V6.52c0-.16.13-.3.3-.3h1.46c.16,0,.3-.13.3-.3v-1.43c0-.16-.13-.28-.28-.28h-1.47c-.16,0-.29-.13-.29-.29v-.24c0-.92.63-1.33,1.76-1.39.16,0,.29-.13.29-.29V.57c0-.16-.13-.28-.28-.28Z"/>
    <polygon class="cls-1" points="40.96 0 39.3 0 33.41 17.75 35.06 17.75 40.96 0"/>
  </g>
</svg>