<?xml version="1.0" encoding="UTF-8"?>
<svg id="_레이어_2" data-name="레이어 2" xmlns="http://www.w3.org/2000/svg" viewBox="0 0 649.65 185.24">
  <g id="_레이어_1-2" data-name="레이어 1">
    <g>
      <path d="M28.04,185.24l16.22-39.25L0,37.25h22.43l32.64,86.11,33.44-86.11h22.43l-61.28,147.99h-21.63Z"/>
      <path d="M165.62,150.99c-31.24,0-59.08-26.63-59.08-57.87,0-33.84,26.63-58.88,60.68-58.88,30.64,0,59.48,24.03,59.08,59.28-.4,29.64-25.23,57.47-60.68,57.47ZM166.22,53.27c-20.83,0-38.85,17.62-38.85,39.25s17.42,39.45,38.45,39.45,39.65-17.22,39.65-39.65-17.42-39.05-39.25-39.05Z"/>
      <path d="M314.61,148.19v-12.02h-.4c-5.41,9.41-18.02,14.82-32.64,14.82-23.83,0-46.26-12.82-46.26-51.87v-61.88h20.83v60.28c0,23.23,8.61,34.44,27.63,34.44s29.04-13.42,29.04-34.84v-59.88h20.83v110.94h-19.02Z"/>
      <path d="M456.19,111.54c-8.81,25.03-30.04,39.45-54.67,39.45-31.84,0-56.87-25.63-56.87-57.27,0-33.44,24.23-59.48,56.67-59.48,25.23,0,48.26,15.82,54.87,39.85h-23.03c-6.21-13.02-16.22-20.83-31.24-20.83-21.83,0-36.45,16.62-36.45,39.25s15.02,39.45,36.05,39.45c14.22,0,25.63-7.61,31.44-20.43h23.23Z"/>
      <path d="M463.01,148.19V0h20.83v148.19h-20.83Z"/>
      <path d="M584.36,140.58c-8.21,6.61-19.83,10.41-34.44,10.41-31.64,0-54.87-24.83-54.87-58.47s25.03-58.28,55.67-58.28c22.23,0,40.85,11.62,51.47,30.64l-70.89,60.28c6.61,4.61,13.02,6.81,21.03,6.81,12.22,0,24.03-5.41,32.04-14.82v23.43ZM576.35,63.08c-6.21-6.21-15.82-9.81-24.83-9.81-19.83,0-35.65,15.82-35.65,38.45,0,7.41.6,12.42,3.6,19.83l56.87-48.46Z"/>
      <path d="M609.39,148.19V32.24c0-18.82,12.82-32.24,35.45-32.24h4.81v19.02c-12.42,0-19.42,3.8-19.42,13.22v5.01h19.42v19.02h-19.42v91.92h-20.83Z"/>
    </g>
  </g>
</svg>