<?xml version="1.0" encoding="UTF-8"?>
<svg id="_레이어_2" data-name="레이어 2" xmlns="http://www.w3.org/2000/svg" viewBox="0 0 30.66 17.75">
  <defs>
    <style>
      .cls-1 {
        fill: #fff;
      }
    </style>
  </defs>
  <g id="_레이어_1-2" data-name="레이어 1">
    <path class="cls-1" d="M12.15,17.75L18.06,0h1.67l-5.98,17.75h-1.61Z"/>
    <path class="cls-1" d="M11.33,12.05c.21,0,.36.22.28.41-1.01,2.39-3.15,3.75-5.61,3.75-3.36,0-6-2.71-6-6.04C0,6.64,2.56,3.9,5.98,3.9c2.52,0,4.84,1.5,5.67,3.81.07.19-.08.39-.29.39h-1.84c-.11,0-.21-.06-.26-.16-.66-1.28-1.69-2.04-3.22-2.04-2.3,0-3.85,1.75-3.85,4.14s1.58,4.16,3.8,4.16c1.44,0,2.61-.74,3.24-1.99.05-.1.15-.16.26-.16h1.83Z"/>
    <path class="cls-1" d="M30.33,12.05c.21,0,.36.22.28.41-1.01,2.39-3.15,3.75-5.61,3.75-3.36,0-6-2.71-6-6.04,0-3.53,2.56-6.28,5.98-6.28,2.52,0,4.84,1.5,5.67,3.81.07.19-.08.39-.29.39h-1.84c-.11,0-.21-.06-.26-.16-.66-1.28-1.69-2.04-3.22-2.04-2.3,0-3.85,1.75-3.85,4.14s1.58,4.16,3.8,4.16c1.44,0,2.61-.74,3.24-1.99.05-.1.15-.16.26-.16h1.83Z"/>
  </g>
</svg>