<?xml version="1.0" encoding="UTF-8"?>
<svg id="_레이어_2" data-name="레이어 2" xmlns="http://www.w3.org/2000/svg" viewBox="0 0 283.46 283.46">
  <defs>
    <style>
      .cls-1 {
        fill: #fff;
      }

      .cls-2 {
        fill: #040000;
      }
    </style>
  </defs>
  <g id="_레이어_1-2" data-name="레이어 1">
    <g>
      <rect class="cls-2" x="0" y="0" width="283.46" height="283.46" rx="43.73" ry="43.73"/>
      <g>
        <path class="cls-1" d="M119.5,206.23l41.33-123.99h11.66l-41.77,123.99h-11.22Z"/>
        <path class="cls-1" d="M113.79,158.19c1.47,0,2.54,1.54,1.96,2.9-7.06,16.66-21.99,26.18-39.18,26.18-23.47,0-41.92-18.89-41.92-42.21,0-24.65,17.86-43.84,41.77-43.84,17.62,0,33.78,10.47,39.58,26.63.48,1.33-.59,2.75-2.01,2.75h-12.86c-.77,0-1.45-.45-1.81-1.13-4.61-8.92-11.84-14.22-22.46-14.22-16.09,0-26.86,12.25-26.86,28.93s11.07,29.08,26.57,29.08c10.05,0,18.2-5.16,22.63-13.91.35-.69,1.03-1.14,1.8-1.14h12.78Z"/>
        <path class="cls-1" d="M246.47,158.19c1.47,0,2.54,1.54,1.96,2.9-7.06,16.66-21.99,26.18-39.18,26.18-23.47,0-41.92-18.89-41.92-42.21,0-24.65,17.86-43.84,41.77-43.84,17.62,0,33.78,10.47,39.58,26.63.48,1.33-.59,2.75-2.01,2.75h-12.86c-.77,0-1.45-.45-1.81-1.13-4.61-8.92-11.84-14.22-22.46-14.22-16.09,0-26.86,12.25-26.86,28.93s11.07,29.08,26.57,29.08c10.05,0,18.2-5.16,22.63-13.91.35-.69,1.03-1.14,1.8-1.14h12.78Z"/>
      </g>
    </g>
  </g>
</svg>